HIERARCHY
ROOT pelvis
{
        OFFSET 0.0 0.0 0.7929999828338623
        CHANNELS 6 Xposition Yposition Zposition Xrotation Yrotation Zrotation
        JOINT left_hip_pitch_link
        {
                OFFSET 0.0 0.06445199996232986 -0.10270000249147415
                CHANNELS 3 Xrotation Yrotation Zrotation
                JOINT left_hip_roll_link
                {
                        OFFSET 0.0 0.052000001072883606 -0.03046499937772751
                        CHANNELS 3 Xrotation Yrotation Zrotation
                        JOINT left_hip_yaw_link
                        {
                                OFFSET 0.025001000612974167 0.0 -0.12411999702453613
                                CHANNELS 3 Xrotation Yrotation Zrotation
                                JOINT left_knee_link
                                {
                                        OFFSET -0.0782729983329773 0.0021488999482244253 -0.17734000086784363
                                        CHANNELS 3 Xrotation Yrotation Zrotation
                                        JOINT left_ankle_pitch_link
                                        {
                                                OFFSET 0.0 -9.444500028621405e-05 -0.30000999569892883
                                                CHANNELS 3 Xrotation Yrotation Zrotation
                                                JOINT left_ankle_roll_link
                                                {
                                                        OFFSET 0.0 0.0 -0.01755799911916256
                                                        CHANNELS 3 Xrotation Yrotation Zrotation
                                                        End Site
                                                        {
                                                                OFFSET 0.000000 0.000000 0.000000
                                                        }
                                                }
                                        }
                                }
                        }
                }
        }
        JOINT right_hip_pitch_link
        {
                OFFSET 0.0 -0.06445199996232986 -0.10270000249147415
                CHANNELS 3 Xrotation Yrotation Zrotation
                JOINT right_hip_roll_link
                {
                        OFFSET 0.0 -0.052000001072883606 -0.03046499937772751
                        CHANNELS 3 Xrotation Yrotation Zrotation
                        JOINT right_hip_yaw_link
                        {
                                OFFSET 0.025001000612974167 0.0 -0.12411999702453613
                                CHANNELS 3 Xrotation Yrotation Zrotation
                                JOINT right_knee_link
                                {
                                        OFFSET -0.0782729983329773 -0.0021488999482244253 -0.17734000086784363
                                        CHANNELS 3 Xrotation Yrotation Zrotation
                                        JOINT right_ankle_pitch_link
                                        {
                                                OFFSET 0.0 9.444500028621405e-05 -0.30000999569892883
                                                CHANNELS 3 Xrotation Yrotation Zrotation
                                                JOINT right_ankle_roll_link
                                                {
                                                        OFFSET 0.0 0.0 -0.01755799911916256
                                                        CHANNELS 3 Xrotation Yrotation Zrotation
                                                        End Site
                                                        {
                                                                OFFSET 0.000000 0.000000 0.000000
                                                        }
                                                }
                                        }
                                }
                        }
                }
        }
        JOINT waist_yaw_link
        {
                OFFSET 0.0 0.0 0.0
                CHANNELS 3 Xrotation Yrotation Zrotation
                JOINT waist_roll_link
                {
                        OFFSET -0.003963499795645475 0.0 0.04399999976158142
                        CHANNELS 3 Xrotation Yrotation Zrotation
                        JOINT torso_link
                        {
                                OFFSET 0.0 0.0 0.0
                                CHANNELS 3 Xrotation Yrotation Zrotation
                                JOINT left_shoulder_pitch_link
                                {
                                        OFFSET 0.00395630020648241 0.10022000223398209 0.2477799952030182
                                        CHANNELS 3 Xrotation Yrotation Zrotation
                                        JOINT left_shoulder_roll_link
                                        {
                                                OFFSET 0.0 0.03799999877810478 -0.013830999843776226
                                                CHANNELS 3 Xrotation Yrotation Zrotation
                                                JOINT left_shoulder_yaw_link
                                                {
                                                        OFFSET 0.0 0.006240000016987324 -0.10320000350475311
                                                        CHANNELS 3 Xrotation Yrotation Zrotation
                                                        JOINT left_elbow_link
                                                        {
                                                                OFFSET 0.015783000737428665 0.0 -0.08051799982786179
                                                                CHANNELS 3 Xrotation Yrotation Zrotation
                                                                JOINT left_wrist_roll_link
                                                                {
                                                                        OFFSET 0.10000000149011612 0.001887909951619804 -0.009999999776482582
                                                                        CHANNELS 3 Xrotation Yrotation Zrotation
                                                                        JOINT left_wrist_pitch_link
                                                                        {
                                                                                OFFSET 0.03799999877810478 0.0 0.0
                                                                                CHANNELS 3 Xrotation Yrotation Zrotation
                                                                                JOINT left_wrist_yaw_link
                                                                                {
                                                                                        OFFSET 0.04600000008940697 0.0 0.0
                                                                                        CHANNELS 3 Xrotation Yrotation Zrotation
                                                                                        End Site
                                                                                        {
                                                                                                OFFSET 0.000000 0.000000 0.000000
                                                                                        }
                                                                                }
                                                                        }
                                                                }
                                                        }
                                                }
                                        }
                                }
                                JOINT right_shoulder_pitch_link
                                {
                                        OFFSET 0.00395630020648241 -0.10021000355482101 0.2477799952030182
                                        CHANNELS 3 Xrotation Yrotation Zrotation
                                        JOINT right_shoulder_roll_link
                                        {
                                                OFFSET 0.0 -0.03799999877810478 -0.013830999843776226
                                                CHANNELS 3 Xrotation Yrotation Zrotation
                                                JOINT right_shoulder_yaw_link
                                                {
                                                        OFFSET 0.0 -0.006240000016987324 -0.10320000350475311
                                                        CHANNELS 3 Xrotation Yrotation Zrotation
                                                        JOINT right_elbow_link
                                                        {
                                                                OFFSET 0.015783000737428665 0.0 -0.08051799982786179
                                                                CHANNELS 3 Xrotation Yrotation Zrotation
                                                                JOINT right_wrist_roll_link
                                                                {
                                                                        OFFSET 0.10000000149011612 -0.001887909951619804 -0.009999999776482582
                                                                        CHANNELS 3 Xrotation Yrotation Zrotation
                                                                        JOINT right_wrist_pitch_link
                                                                        {
                                                                                OFFSET 0.03799999877810478 0.0 0.0
                                                                                CHANNELS 3 Xrotation Yrotation Zrotation
                                                                                JOINT right_wrist_yaw_link
                                                                                {
                                                                                        OFFSET 0.04600000008940697 0.0 0.0
                                                                                        CHANNELS 3 Xrotation Yrotation Zrotation
                                                                                        End Site
                                                                                        {
                                                                                                OFFSET 0.000000 0.000000 0.000000
                                                                                        }
                                                                                }
                                                                        }
                                                                }
                                                        }
                                                }
                                        }
                                }
                        }
                }
        }
}
MOTION
Frames: 5
Frame Time: 0.03333333333333333
0.0 0.0 0.7915193438529968 -1.1407667998608095 -4.018258751356897 1.622206163960272e-09 -1.5811455658954776e-07 7.553341931173532 -1.307923086950897e-08 5.813229328741107 5.872829336006882e-08 2.604285857713304e-08 -2.5890196337935143e-07 -4.670360844251588e-07 14.339923661108823 -9.695059972684623e-08 0.7276608533998188 -1.7923347484032672e-07 4.0007969833390164e-07 -7.334585577492208 1.7782632940744483e-06 -1.5606441457561206 2.830455888234544e-07 -1.1398137023535262e-06 1.0815927775208534e-07 6.32896219183693 7.50591487454198e-09 -0.8597571567852031 -1.7629140321759802e-08 -4.907988339110002e-09 -2.7284823975622046e-07 8.566676456784763e-08 -4.188026179553815 -9.132044546956796e-08 0.7330982080095518 7.436620545285147e-07 -3.477996156920467e-07 -3.546014837960168 5.805722181604005e-07 7.37663178438152 4.952159261251128e-08 9.067969303322737e-07 -3.9034827624111875e-08 -1.9570063638347933e-07 -2.6504691567523224 2.5427698682986755 5.372293486899366e-07 1.2012270804293318e-07 -2.4303180452278366e-07 4.709934512054488 -3.585933330426222e-07 2.3497826878720417e-08 18.556993936161906 -1.7305934779801613e-07 16.678471492802963 -6.505701958745106e-07 4.426441291255746e-07 3.0388892727950945e-06 -3.546375974260462e-07 -19.4382266856537 2.0542271297035032e-07 35.49361706049424 1.1310940347061714e-06 4.138929925687571 -1.4717159438152488e-06 -1.1885803166796032e-06 7.864869820168878e-07 0.18018830064235808 1.3023910639945066e-06 -4.841202313274099e-07 8.18211648080432e-07 -5.547643162347533 -1.1635365397848743e-07 13.075357956464444 -2.0914406651330063e-07 -18.22229274806775 6.334968892888834e-07 1.2949344806639382e-07 3.140682755514654e-07 -4.966679002260758e-07 18.327390058108563 2.0866373439500077e-06 31.35532517531082 2.417445527740885e-07 0.2518152891892641 -3.276462361383584e-06 -8.435898088895161e-07 1.2546941002106181e-06 -1.928463801127704 1.394781949358477e-06 -1.4206664207355903e-06 2.3631632348243404e-06 8.386979140062014
0.0005100987036712468 0.0007779089501127601 0.7922934293746948 -0.8298288607994052 -4.254102438067645 0.27245954762334207 7.686257368765428e-08 7.8890336237990075 1.2933634927044708e-08 5.32232809184095 4.980290249631175e-07 7.204406259945328e-09 9.382832026993384e-08 5.479752216256041e-09 15.594908687718469 -2.3911218503591315e-07 0.7276606833323793 -2.6614477739794755e-06 5.442862044769587e-07 -5.716049555447936 4.044670416718072e-06 -2.1910428609240458 2.551137031664672e-07 3.3687917006056974e-06 -9.48777460854298e-08 6.813196192303918 -1.9977801145621827e-09 -1.3471043930488955 -3.79712976034736e-07 9.971945573291705e-09 -7.857428192974309e-07 3.4129304592677955e-07 -3.5176842329255944 -3.803931552601866e-07 0.727661056850818 -2.3177504146091612e-08 -3.7383461105878266e-07 -3.47254994907836 -6.724313341287636e-08 7.438296225221621 4.8578876204925495e-08 -1.320532420323936e-08 6.304758044322221e-09 3.1791043485287696e-09 -2.206806814285058 2.6549764828520623 7.685538386720229e-07 1.0622414476136658e-07 -1.9018161744257226e-08 5.12064821309068 7.063108912227361e-09 2.1550435483501965e-07 18.428999739611704 -2.2329969902940368e-07 10.394920531057139 -7.466860240151516e-07 -1.4578877580731847e-08 -1.505411180356257e-07 -5.673688573513275e-07 -9.189610205842513 -5.714787077894237e-07 34.67514565906049 -4.863962594984542e-07 -6.779918120241512 -3.839679869709135e-06 4.9320433318671e-07 -1.595109412438149e-07 -2.0430472197684026 1.2087102460349076e-08 -8.028606880911296e-07 -5.470772492612771e-07 -8.381544075081026 5.031409109579427e-08 12.971104778170178 6.156142517120663e-09 -18.717971637576873 -5.662237177215947e-08 -4.299295607825703e-07 -1.622958251471821e-07 6.978883002037039e-07 18.658684234442127 -1.7427910622248773e-06 30.967229868523777 1.0278682477688476e-06 -0.3663170201898652 -9.010466248709666e-07 -1.1363660622499782e-06 -7.841506917304068e-07 -2.82029607727995 4.143245220010861e-07 -2.750721641378176e-06 4.5164127104490835e-07 9.387277060882628
0.0009791828924790025 0.002739019924774766 0.7909772992134094 -0.49839598918617534 -4.0218376244176435 0.816988874439228 -8.831521163308606e-08 7.526158173900455 8.512452062981114e-08 4.656303707366767 -3.522114448705884e-08 -9.472566072510502e-08 6.705334791831373e-07 -3.2836364586897496e-08 14.839296078377727 3.3241466889795555e-07 0.7276611102105895 1.1333330001008008e-06 8.855708052017999e-09 -4.717420734934855 3.2852414542609884e-06 -4.244606306032846 -3.43048266833292e-09 2.5254592548370618e-08 8.541572414289326e-08 6.686100481694208 4.2698426957641964e-08 -1.941659089811979 1.2483796713600327e-07 -2.1407484601350075e-08 1.181339382857759e-07 1.1706980582643423e-07 -3.902223148028199 -5.081083584017935e-07 0.7276609501312623 -5.259319830329701e-07 -1.0341140309033452e-07 -3.3930191381727823 3.4053078610994934e-08 7.722894818920948 -1.928913542110924e-08 4.8515041246176664e-08 -2.0287184000385675e-08 -7.365668475739196e-07 -1.8257097167072283 2.323767351590016 -6.25690548600918e-07 -7.3259414973186445e-09 2.4341235788013193e-07 4.927325022888474 -2.1121904398297687e-07 5.034620269291268e-08 17.96342308723801 2.458281259825555e-08 10.5823949968649 -3.049608077395201e-06 -1.6326555882689393e-07 7.49496482258211e-07 -9.597793201187146e-08 -9.944675517071497 -6.306125254391614e-07 33.919921314014275 1.2102116810936467e-07 -8.430230609604987 -5.450669351470926e-06 9.313651749393612e-07 -1.8620738099366782e-07 -2.125853844779225 -1.606238287797644e-07 1.2348474729753401e-07 4.971343094867843e-07 -7.606482941577472 3.179219517350963e-07 13.141476911784464 6.785373676724949e-08 -18.19043223821901 5.106518577162851e-07 -2.7927837007580957e-07 -1.3078066747464737e-06 2.771286502829031e-06 16.973211489267026 9.582638176871624e-07 30.724027885296852 -6.455764835637778e-07 0.41937176760439665 -3.565591104535243e-06 -1.1510133461234269e-06 -3.1639056520873616e-07 -3.4859124672000155 4.090006324727575e-07 -2.4067027374373694e-07 5.328255145113261e-07 8.449597009308398
0.0014042844995856285 0.0031047293450683355 0.7906612157821655 -0.4748050279850586 -4.098907708330714 0.9861697415943653 8.976663709718105e-09 7.638938421869798 1.81369142409368e-07 4.568276538266726 -5.076679758141047e-07 -2.0951395383016756e-07 1.5308319783969398e-07 4.0304191206783425e-07 14.722689686980985 1.167164287153882e-07 0.727662240753916 2.247000868011915e-06 5.77312687548453e-08 -4.686494428848073 -1.8402324770953316e-06 -4.297637041332824 -2.2940895639740943e-08 -2.9169257308674807e-06 -3.9899608963324245e-08 6.850652150381513 -2.9306968776108482e-08 -2.0294131339875348 8.289653960694908e-08 1.593507269719841e-07 6.84884384290195e-08 -3.552001612158847e-07 -3.9800882929632406 -2.418073734727094e-07 0.733507681157926 -1.5799003167550357e-07 3.532833639593606e-08 -3.4806099087646003 3.504667251551434e-07 7.53025601143275 -5.363258676049014e-08 3.7015709113797464e-07 1.11653997465192e-08 -6.577345097944758e-08 -1.7844552872617179 2.2893968930696103 -6.643496309764832e-07 4.289254806965267e-09 1.6011495678264981e-07 4.885825200837964 -5.2402797687333965e-08 -1.425500369858454e-07 18.026290472786332 2.5168057402344504e-08 10.510186044251851 2.1912203750227706e-07 2.742005330778429e-07 1.3699583955089704e-06 9.574194376005998e-07 -9.891944806240623 1.1616358202640218e-06 33.91334244204485 5.296518075921328e-07 -8.731551628335158 -5.993491222123905e-06 7.36494588692867e-07 -2.5807173841108154e-07 -2.0254790852771207 4.036671557072823e-07 7.418117788066053e-07 -5.095202659772735e-06 -7.4794942283668036 1.4257501351714143e-08 13.23108710176228 -6.845811582998285e-09 -18.4210726958143 3.669480106539631e-07 -1.034093268345784e-07 -9.930258355441567e-07 6.759301705160978e-07 17.332703538335505 2.0047667929239928e-06 30.736783736149125 1.0034277961581586e-07 0.06442274535054712 4.7431441741378875e-06 2.1142929851492843e-07 -4.5438043655374743e-07 -3.379522857572016 8.444268096748752e-07 -1.4720400759277842e-06 1.1844286909352823e-06 8.531535110708457
0.0011782865040004253 0.00328446039929986 0.7904673218727112 -0.4512246803815276 -3.9944863571120908 0.8227005563537962 -7.902570181818419e-08 7.536294101641894 1.8979899046183972e-07 4.543195461600878 4.0532327305197314e-07 6.942057948720735e-08 -7.324461470907346e-07 -5.370350295211179e-07 14.9316960981924 8.225360087574557e-07 0.7276607366921763 -2.782195758682496e-06 2.5291212634442318e-08 -4.684116733172081 2.0910054893485945e-07 -4.238460725100648 -1.8162717808453357e-07 -2.8704679391956885e-06 7.128561790735695e-09 6.7020542673679175 -1.3006539407800206e-08 -2.0453681382735645 -2.9467879834859405e-07 5.2925471673354195e-08 -2.1576114095627312e-07 -5.5418786269600045e-08 -3.9278235428135893 -4.3464111462415823e-08 0.7276607466802757 -3.4344975907324844e-07 -2.850592968941023e-07 -3.6179784375733455 -3.256648920721017e-07 7.563861318678523 6.980858253716416e-08 -9.279658889125837e-08 9.532791649945256e-09 1.1464867854737312e-07 -1.5364645337376766 2.320461399981169 -4.599699860337573e-07 1.3186451547114409e-08 -1.1981067477951298e-07 4.7858597542027255 -1.7588693573793473e-08 -6.649521780664517e-08 18.013558910396842 2.7485800100362917e-08 10.117477418205036 2.1999830067257023e-06 -8.992399984571867e-08 -1.5085829141730233e-07 1.8565339136692333e-07 -9.442846417781283 1.2998242792281688e-06 33.97879987505996 -6.335566305020169e-07 -8.794743192275353 4.163505220269785e-06 -5.070198691579167e-07 8.404146125883403e-07 -2.081347101304426 5.858817729491516e-07 4.017704059803386e-08 8.067923931964925e-06 -7.30177457933758 8.882140047244977e-08 13.315399025916113 5.2309816448073425e-08 -18.472027568930898 -7.375688495207679e-08 -9.462485675358974e-09 -4.261701239526561e-07 3.682878765635139e-09 17.20273156657422 -3.0109185883292865e-07 30.75407467014437 -3.2854334773794635e-07 -0.3704967178965522 5.80405766518475e-06 2.1554139185321214e-06 -1.7097455529497467e-06 -3.5146204682176188 -9.882627925127243e-07 -1.1737278278666936e-07 7.87265588918478e-07 8.28422877184525
